<svg class="w-36" xmlns="http://www.w3.org/2000/svg" fill="none" viewBox="0 0 144 32"><path fill="currentColor" fill-rule="evenodd" d="M128.7 23.4c-.9 0-1.7-.2-2.4-.5s-1.3-.7-1.9-1.3c-.5-.6-.9-1.2-1.2-2a7 7 0 0 1-.4-2.5v-.5a6.5 6.5 0 0 1 1.6-4.5c.5-.5 1-1 1.8-1.3a5.7 5.7 0 0 1 5 .2c.5.3 1 .8 1.5 1.5v-6h3.1V23h-2.5v-2.6l-.2.5a4.7 4.7 0 0 1-4.4 2.5Zm.7-2.6c.6 0 1.2-.2 1.7-.5.5-.2.9-.6 1.2-1.2.3-.5.5-1.1.5-1.9v-.9c0-.7-.2-1.3-.5-1.8a3 3 0 0 0-1.2-1.1c-.6-.3-1.1-.4-1.7-.4a3.3 3.3 0 0 0-3 1.8c-.3.6-.5 1.3-.5 2 0 .9.2 1.6.5 2.1.3.6.7 1 1.2 1.4.5.3 1.1.5 1.8.5ZM116 23.4c-1 0-2-.2-2.8-.5a5.8 5.8 0 0 1-3.1-3.5c-.3-.8-.4-1.5-.4-2.3v-.5c0-.8.1-1.6.4-2.3.2-.8.6-1.5 1.1-2 .6-.6 1.2-1.1 2-1.5.7-.3 1.6-.5 2.6-.5 1.4 0 2.5.3 3.4.9.9.5 1.5 1.3 2 2.3.5.9.7 1.9.7 3v1.1h-9.2c0 .5.1 1 .3 1.3.2.6.6 1 1 1.4.6.4 1.2.5 2 .5.7 0 1.4-.1 1.9-.4.4-.3.7-.7.9-1.2h2.9c-.2.9-.6 1.6-1 2.2a5 5 0 0 1-2 1.5c-.8.3-1.7.5-2.7.5Zm-3-8.7-.3 1h6.2c0-.4-.2-.8-.3-1-.2-.6-.6-1-1-1.4a3 3 0 0 0-1.8-.4c-.6 0-1.2.1-1.7.5a3 3 0 0 0-1.1 1.3ZM95.6 10.7v16.8h3.1v-6.1c.5.6 1 1 1.7 1.4a5.8 5.8 0 0 0 4.9 0c.7-.2 1.3-.7 1.8-1.2a6 6 0 0 0 1.1-2c.3-.8.4-1.6.4-2.5v-.5c0-.9-.1-1.7-.4-2.4a6 6 0 0 0-1.2-2c-.4-.6-1-1-1.8-1.4-.7-.3-1.4-.5-2.3-.5-1 0-1.8.2-2.6.7-.8.4-1.4 1-1.8 1.8l-.4 1v-3h-2.5Zm8.3 9.6a3.6 3.6 0 0 1-4.7-1c-.4-.6-.6-1.2-.6-2v-.8c0-.8.2-1.4.5-2a3.3 3.3 0 0 1 3-1.5c.7 0 1.3.1 1.8.5.5.3.9.7 1.2 1.3.2.6.4 1.3.4 2 0 .8-.2 1.5-.4 2-.3.7-.7 1.1-1.2 1.5Z" clip-rule="evenodd"></path><path fill="currentColor" d="M74.4 23V10.7H77v3l.2-.8c.4-.9.8-1.5 1.4-2a4 4 0 0 1 2.4-.6h.1c1 0 1.8.3 2.4.7a3.7 3.7 0 0 1 1.5 2.1V13a4 4 0 0 1 1.5-2 4 4 0 0 1 2.3-.6h.1c1 0 1.8.3 2.4.7.7.4 1.1 1 1.4 1.9.4.8.5 1.9.5 3v7H90v-7.2c0-.8-.2-1.4-.6-1.8a2 2 0 0 0-1.7-.7c-.7 0-1.3.2-1.7.7-.4.5-.7 1-.7 1.9V23h-3.1v-7.3c0-.8-.2-1.4-.6-1.8a2 2 0 0 0-1.7-.7c-.7 0-1.3.2-1.7.7-.4.5-.7 1-.7 1.9V23h-3Z"></path><path fill="currentColor" fill-rule="evenodd" d="M69.5 20.6V23h2.4v-7.6c0-1.2-.2-2.1-.6-2.8-.4-.7-1-1.2-1.9-1.6-.8-.3-1.9-.5-3.1-.5a40.7 40.7 0 0 0-3.9.2v2.7a33.7 33.7 0 0 1 4.4-.2c.7 0 1.3.2 1.6.5.4.4.5.9.5 1.6v.1h-2.5c-1 0-2 .2-2.8.4a4 4 0 0 0-1.9 1.3c-.4.6-.6 1.3-.6 2.3 0 .8.1 1.5.5 2 .4.7.9 1.1 1.6 1.4.6.3 1.4.5 2.3.5.9 0 1.6-.1 2.2-.4.6-.4 1-.8 1.4-1.4l.4-.9Zm-.6-3.3h-2.5c-.7 0-1.3.2-1.7.5-.4.4-.5.8-.5 1.4 0 .6.1 1 .5 1.3.4.4 1 .6 1.7.6l1.2-.3a2 2 0 0 0 1-.8c.2-.4.3-.9.3-1.6v-1.1Z" clip-rule="evenodd"></path><path fill="currentColor" d="M58.6 23.1c-1.2 0-2-.1-2.8-.4-.7-.3-1.3-.8-1.6-1.5-.4-.7-.6-1.6-.6-2.8V13h-2v-2.3h2V7.3h3v3.4h3.7V13h-3.7v5.6c0 .6.1 1 .4 1.4.4.3.8.5 1.4.5h2V23h-1.8ZM42.2 22.3c1 .7 2.3 1 4 1 1 0 2 0 2.8-.4.8-.4 1.4-.8 1.9-1.4.4-.6.7-1.3.7-2.1 0-1.1-.5-2-1.3-2.6-.8-.7-2-1-3.4-1.2l-1-.2c-.7 0-1.2-.2-1.5-.4a1 1 0 0 1-.4-.9c0-.4.1-.7.5-1 .4-.2.9-.4 1.5-.4.8 0 1.3.2 1.7.5.4.3.6.6.7 1h2.8c0-1.2-.5-2.2-1.5-2.8-1-.7-2.1-1-3.6-1-1 0-1.9.1-2.6.4-.7.3-1.3.7-1.8 1.3-.4.6-.6 1.3-.6 2.1 0 1 .4 2 1.1 2.6.8.6 1.8 1 3.2 1.1l1 .1c.9.1 1.5.3 1.8.5.3.3.5.6.5 1 0 .5-.2.8-.7 1-.4.4-1 .5-1.8.5-.9 0-1.5-.2-2-.5-.4-.4-.6-.7-.6-1.2h-2.9c0 1.3.6 2.3 1.5 3Z"></path><path fill="currentColor" d="M9 10.6 12.3 0h3.2L12 10.6H9ZM9 20.2l-9-6.6 1-3 9 6.5-1 3ZM9 29.6l9.1-6.6-2.6-1.8-9 6.5 2.6 1.9ZM23.7 15.3 27 25.9l-2.6 1.8-3.4-10.6 2.6-1.8ZM29.2 7.6H18l1 3h11.1l-1-3Z"></path><path fill="currentColor" d="M138.8 20.3V23h.6v-2.7h1v-.5h-2.6v.5h1ZM140.6 19.8V23h.6v-2.5l.8 1.8h.6l.8-1.8V23h.6v-3.2h-.9l-.8 2-.9-2h-.8Z"></path></svg>